<mxfile host="Electron" modified="2023-11-04T20:46:04.512Z" agent="Mozilla/5.0 (Windows NT 10.0; Win64; x64) AppleWebKit/537.36 (KHTML, like Gecko) draw.io/21.6.8 Chrome/114.0.5735.289 Electron/25.5.0 Safari/537.36" etag="ey3KnuuMlPKzkBPKMzXp" version="21.6.8" type="device">
  <diagram name="Page-1" id="G5jStUoCOrkI7_BwMiK8">
    <mxGraphModel dx="932" dy="1445" grid="1" gridSize="10" guides="1" tooltips="1" connect="1" arrows="1" fold="1" page="1" pageScale="1" pageWidth="2336" pageHeight="1654" math="0" shadow="0">
      <root>
        <mxCell id="0" />
        <mxCell id="1" parent="0" />
        <mxCell id="uaEa5t0nl8XxO6uw_YTu-1" value="&lt;p style=&quot;margin:0px;margin-top:4px;margin-left:10px;text-align:left;&quot;&gt;&lt;b&gt;idb&lt;/b&gt;   Block1&lt;/p&gt;" style="html=1;shape=mxgraph.sysml.package;html=1;overflow=fill;whiteSpace=wrap;" parent="1" vertex="1">
          <mxGeometry x="130" y="120" width="540" height="50" as="geometry" />
        </mxCell>
        <mxCell id="vTgRFdZvMBiCx-Nu3UrI-4" value="&amp;lt;&amp;lt;boundary&amp;gt;&amp;gt;&lt;br&gt;MessageSender" style="swimlane;fontStyle=1;align=center;verticalAlign=top;childLayout=stackLayout;horizontal=1;startSize=40;horizontalStack=0;resizeParent=1;resizeParentMax=0;resizeLast=0;collapsible=1;marginBottom=0;whiteSpace=wrap;html=1;" parent="1" vertex="1">
          <mxGeometry x="120" y="250" width="160" height="244" as="geometry" />
        </mxCell>
        <mxCell id="vTgRFdZvMBiCx-Nu3UrI-5" value="- startMessage():void&lt;br&gt;- sendZero():void&lt;br&gt;- sendOne():void&lt;br&gt;- endMessage():void&lt;br&gt;- sendRepeat():void" style="text;strokeColor=none;fillColor=none;align=left;verticalAlign=top;spacingLeft=4;spacingRight=4;overflow=hidden;rotatable=0;points=[[0,0.5],[1,0.5]];portConstraint=eastwest;whiteSpace=wrap;html=1;" parent="vTgRFdZvMBiCx-Nu3UrI-4" vertex="1">
          <mxGeometry y="40" width="160" height="90" as="geometry" />
        </mxCell>
        <mxCell id="vTgRFdZvMBiCx-Nu3UrI-6" value="" style="line;strokeWidth=1;fillColor=none;align=left;verticalAlign=middle;spacingTop=-1;spacingLeft=3;spacingRight=3;rotatable=0;labelPosition=right;points=[];portConstraint=eastwest;strokeColor=inherit;" parent="vTgRFdZvMBiCx-Nu3UrI-4" vertex="1">
          <mxGeometry y="130" width="160" height="8" as="geometry" />
        </mxCell>
        <mxCell id="vTgRFdZvMBiCx-Nu3UrI-7" value="+ sendMessage(int32):void&lt;br style=&quot;border-color: var(--border-color);&quot;&gt;+ sendMessage(int8, int8, int8, int8):void&lt;br style=&quot;border-color: var(--border-color);&quot;&gt;+ sendShoot(playerNum, teamNum, weaponType/damage):void" style="text;strokeColor=none;fillColor=none;align=left;verticalAlign=top;spacingLeft=4;spacingRight=4;overflow=hidden;rotatable=0;points=[[0,0.5],[1,0.5]];portConstraint=eastwest;whiteSpace=wrap;html=1;" parent="vTgRFdZvMBiCx-Nu3UrI-4" vertex="1">
          <mxGeometry y="138" width="160" height="106" as="geometry" />
        </mxCell>
        <mxCell id="LpUyME4-pN-IixlytJJV-1" value="&amp;lt;&amp;lt;boundary&amp;gt;&amp;gt;&lt;br&gt;MessageReceiver" style="swimlane;fontStyle=1;align=center;verticalAlign=top;childLayout=stackLayout;horizontal=1;startSize=40;horizontalStack=0;resizeParent=1;resizeParentMax=0;resizeLast=0;collapsible=1;marginBottom=0;whiteSpace=wrap;html=1;" parent="1" vertex="1">
          <mxGeometry x="390" y="275" width="160" height="120" as="geometry" />
        </mxCell>
        <mxCell id="LpUyME4-pN-IixlytJJV-2" value="- messageChannel" style="text;strokeColor=none;fillColor=none;align=left;verticalAlign=top;spacingLeft=4;spacingRight=4;overflow=hidden;rotatable=0;points=[[0,0.5],[1,0.5]];portConstraint=eastwest;whiteSpace=wrap;html=1;" parent="LpUyME4-pN-IixlytJJV-1" vertex="1">
          <mxGeometry y="40" width="160" height="30" as="geometry" />
        </mxCell>
        <mxCell id="LpUyME4-pN-IixlytJJV-3" value="" style="line;strokeWidth=1;fillColor=none;align=left;verticalAlign=middle;spacingTop=-1;spacingLeft=3;spacingRight=3;rotatable=0;labelPosition=right;points=[];portConstraint=eastwest;strokeColor=inherit;" parent="LpUyME4-pN-IixlytJJV-1" vertex="1">
          <mxGeometry y="70" width="160" height="8" as="geometry" />
        </mxCell>
        <mxCell id="LpUyME4-pN-IixlytJJV-4" value="+ messageReceived(int64, nofBytes)" style="text;strokeColor=none;fillColor=none;align=left;verticalAlign=top;spacingLeft=4;spacingRight=4;overflow=hidden;rotatable=0;points=[[0,0.5],[1,0.5]];portConstraint=eastwest;whiteSpace=wrap;html=1;" parent="LpUyME4-pN-IixlytJJV-1" vertex="1">
          <mxGeometry y="78" width="160" height="42" as="geometry" />
        </mxCell>
        <mxCell id="LpUyME4-pN-IixlytJJV-5" value="&amp;lt;&amp;lt;boundary&amp;gt;&amp;gt;&lt;br&gt;NecReceiver" style="swimlane;fontStyle=1;align=center;verticalAlign=top;childLayout=stackLayout;horizontal=1;startSize=40;horizontalStack=0;resizeParent=1;resizeParentMax=0;resizeLast=0;collapsible=1;marginBottom=0;whiteSpace=wrap;html=1;" parent="1" vertex="1">
          <mxGeometry x="630" y="250" width="160" height="180" as="geometry" />
        </mxCell>
        <mxCell id="LpUyME4-pN-IixlytJJV-6" value="- MessageReceiver&amp;amp;&lt;br&gt;- signalChannel&lt;br&gt;- pauseChannel&lt;br&gt;- n : int64&lt;br&gt;- m : int64" style="text;strokeColor=none;fillColor=none;align=left;verticalAlign=top;spacingLeft=4;spacingRight=4;overflow=hidden;rotatable=0;points=[[0,0.5],[1,0.5]];portConstraint=eastwest;whiteSpace=wrap;html=1;" parent="LpUyME4-pN-IixlytJJV-5" vertex="1">
          <mxGeometry y="40" width="160" height="90" as="geometry" />
        </mxCell>
        <mxCell id="LpUyME4-pN-IixlytJJV-7" value="" style="line;strokeWidth=1;fillColor=none;align=left;verticalAlign=middle;spacingTop=-1;spacingLeft=3;spacingRight=3;rotatable=0;labelPosition=right;points=[];portConstraint=eastwest;strokeColor=inherit;" parent="LpUyME4-pN-IixlytJJV-5" vertex="1">
          <mxGeometry y="130" width="160" height="8" as="geometry" />
        </mxCell>
        <mxCell id="LpUyME4-pN-IixlytJJV-8" value="+ signalDetected(time)&lt;br&gt;+ pauseDetected(time)" style="text;strokeColor=none;fillColor=none;align=left;verticalAlign=top;spacingLeft=4;spacingRight=4;overflow=hidden;rotatable=0;points=[[0,0.5],[1,0.5]];portConstraint=eastwest;whiteSpace=wrap;html=1;" parent="LpUyME4-pN-IixlytJJV-5" vertex="1">
          <mxGeometry y="138" width="160" height="42" as="geometry" />
        </mxCell>
        <mxCell id="LpUyME4-pN-IixlytJJV-13" style="edgeStyle=orthogonalEdgeStyle;rounded=0;orthogonalLoop=1;jettySize=auto;html=1;" parent="1" source="LpUyME4-pN-IixlytJJV-9" target="LpUyME4-pN-IixlytJJV-5" edge="1">
          <mxGeometry relative="1" as="geometry" />
        </mxCell>
        <mxCell id="LpUyME4-pN-IixlytJJV-9" value="&amp;lt;&amp;lt;boundary&amp;gt;&amp;gt;&lt;br&gt;SignalPauseDetector" style="swimlane;fontStyle=1;align=center;verticalAlign=top;childLayout=stackLayout;horizontal=1;startSize=40;horizontalStack=0;resizeParent=1;resizeParentMax=0;resizeLast=0;collapsible=1;marginBottom=0;whiteSpace=wrap;html=1;" parent="1" vertex="1">
          <mxGeometry x="870" y="286" width="160" height="108" as="geometry" />
        </mxCell>
        <mxCell id="LpUyME4-pN-IixlytJJV-10" value="- NecReceiver&amp;amp;&lt;br&gt;- sleepTimer : Timer&lt;br&gt;- tsopReceiverPin int8" style="text;strokeColor=none;fillColor=none;align=left;verticalAlign=top;spacingLeft=4;spacingRight=4;overflow=hidden;rotatable=0;points=[[0,0.5],[1,0.5]];portConstraint=eastwest;whiteSpace=wrap;html=1;" parent="LpUyME4-pN-IixlytJJV-9" vertex="1">
          <mxGeometry y="40" width="160" height="60" as="geometry" />
        </mxCell>
        <mxCell id="LpUyME4-pN-IixlytJJV-11" value="" style="line;strokeWidth=1;fillColor=none;align=left;verticalAlign=middle;spacingTop=-1;spacingLeft=3;spacingRight=3;rotatable=0;labelPosition=right;points=[];portConstraint=eastwest;strokeColor=inherit;" parent="LpUyME4-pN-IixlytJJV-9" vertex="1">
          <mxGeometry y="100" width="160" height="8" as="geometry" />
        </mxCell>
        <mxCell id="LpUyME4-pN-IixlytJJV-14" style="edgeStyle=orthogonalEdgeStyle;rounded=0;orthogonalLoop=1;jettySize=auto;html=1;" parent="1" source="LpUyME4-pN-IixlytJJV-6" target="LpUyME4-pN-IixlytJJV-1" edge="1">
          <mxGeometry relative="1" as="geometry" />
        </mxCell>
      </root>
    </mxGraphModel>
  </diagram>
</mxfile>
